<?xml version="1.0" encoding="iso-8859-1"?>
<svg
    version="1.1"
    xmlns="http://www.w3.org/2000/svg"
    xmlns:xlink="http://www.w3.org/1999/xlink"
    x="0px"
    y="0px"
    width="64"
    height="64"
    viewBox="0 0 64 64"
    style="enable-background:new 0 0 64 64;"
    xml:space="preserve">
  <g>
    <rect
        style="opacity:0;fill:#ffffff"
        width="64"
        height="64"/>
    <g
        style="opacity:0.6">
      <path
          style="fill:#ffffff"
          d="M52.247,55.743H11.751c-1.885,0-3.419-1.534-3.419-3.419V11.828c0-1.885,1.534-3.418,3.419-3.418 h40.496c1.885,0,3.419,1.534,3.419,3.418v40.496C55.666,54.209,54.132,55.743,52.247,55.743z M11.751,10.41 c-0.782,0-1.419,0.636-1.419,1.418v40.496c0,0.782,0.637,1.419,1.419,1.419h40.496c0.782,0,1.419-0.637,1.419-1.419V11.828 c0-0.782-0.637-1.418-1.419-1.418H11.751z"/>
    </g>
    <rect
        style="opacity:0.6;fill:#ffffff"
        x="10"
        y="17.667"
        width="44"
        height="2"/>
    <g>
      <rect
          x="16"
          y="31.667"
          style="fill:#ffffff"
          width="32"
          height="2"/>
      <rect
          x="16"
          y="39.667"
          style="fill:#ffffff"
          width="32"
          height="2"/>
      <rect
          style="fill:#ffffff"
          x="23"
          y="25.333"
          width="2"
          height="22.667"/>
      <rect
          style="fill:#ffffff"
          x="31"
          y="25.333"
          width="2"
          height="22.667"/>
      <rect
          style="fill:#ffffff"
          x="39"
          y="25.333"
          width="2"
          height="22.667"/>
      <path
          style="fill:#ffffff"
          d="M46.604,49.743H17.396c-1.321,0-2.396-1.075-2.396-2.396V26.14c0-1.321,1.075-2.396,2.396-2.396 h29.208c1.321,0,2.396,1.075,2.396,2.396v21.207C49,48.668,47.925,49.743,46.604,49.743z M17.396,25.743 c-0.215,0-0.396,0.182-0.396,0.396v21.207c0,0.215,0.182,0.396,0.396,0.396h29.208c0.215,0,0.396-0.182,0.396-0.396V26.14 c0-0.215-0.182-0.396-0.396-0.396H17.396z"/>
    </g>
  </g>
</svg>
