<?xml version="1.0" encoding="utf-8" standalone="no"?>
<svg version="1.1" width="64" height="64" xmlns="http://www.w3.org/2000/svg">
  <rect style="fill:none;opacity:0" width="64" height="64"/>
  <g style="fill:#ffffff">
    <path style="opacity:0.6" d="M 11.8 8.4 C 9.9 8.4 8.3 9.9 8.3 11.8 L 8.3 52.3 C 8.3 54.2 9.9 55.7 11.8 55.7 L 52.2 55.7 C 54.1 55.7 55.7 54.2 55.7 52.3 L 55.7 11.8 C 55.7 9.9 54.1 8.4 52.2 8.4 L 11.8 8.4 z M 11.8 10.4 L 52.2 10.4 C 53 10.4 53.7 11 53.7 11.8 L 53.7 17.7 L 10.3 17.7 L 10.3 11.8 C 10.3 11 11 10.4 11.8 10.4 z M 10.3 19.7 L 53.7 19.7 L 53.7 52.3 C 53.7 53.1 53 53.7 52.2 53.7 L 11.8 53.7 C 11 53.7 10.3 53.1 10.3 52.3 L 10.3 19.7 z"/>
    <path d="m 17.4,23.7 c -1.3,0 -2.4,1.1 -2.4,2.4 v 21.2 c 0,1.4 1.1,2.4 2.4,2.4 h 29.2 c 1.3,0 2.4,-1 2.4,-2.4 V 26.1 c 0,-1.3 -1.1,-2.4 -2.4,-2.4 z m 0,2 c 1.9,0 3.7,0 5.6,0 v 6 h -6 v -5.6 c 0,-0.2 0.2,-0.4 0.4,-0.4 z m 7.6,0 h 6 v 6 h -6 z m 8,0 h 6 v 6 h -6 z m 8,0 h 5.6 c 0.2,0 0.4,0.2 0.4,0.4 v 5.6 h -6 z m -24,8 h 6 v 6 h -6 z m 8,0 h 6 v 6 h -6 z m 8,0 h 6 v 6 h -6 z m 8,0 h 6 v 6 h -6 z m -24,8 h 6 v 6 H 17.4 C 17.2,47.7 17,47.6 17,47.3 Z m 8,0 h 6 v 6 h -6 z m 8,0 h 6 v 6 h -6 z m 8,0 h 6 v 5.6 c 0,0.3 -0.2,0.4 -0.4,0.4 H 41 z"/>
  </g>
</svg>
