<?xml version="1.0" encoding="UTF-8" standalone="no"?>
<!-- Created with Inkscape (http://www.inkscape.org/) -->

<svg
   xmlns:svg="http://www.w3.org/2000/svg"
   xmlns="http://www.w3.org/2000/svg"
   xmlns:xlink="http://www.w3.org/1999/xlink"
   xmlns:sodipodi="http://sodipodi.sourceforge.net/DTD/sodipodi-0.dtd"
   xmlns:inkscape="http://www.inkscape.org/namespaces/inkscape"
   width="86"
   height="86"
   viewBox="0 0 22.754167 22.754167"
   version="1.1"
   inkscape:version="0.92.5 (2060ec1f9f, 2020-04-08)"
   sodipodi:docname="harbour-valuelogger2.svg">
  <defs>
    <linearGradient
       id="SVGID_1_"
       gradientUnits="userSpaceOnUse"
       x1="39.2048"
       y1="84.718102"
       x2="39.2048"
       y2="-0.88730001"
       gradientTransform="matrix(0.28172833,0,0,0.26394833,2.5620296,127.94245)">
      <stop
         offset="0"
         style="stop-color:#534054"
         id="stop2" />
      <stop
         offset="1"
         style="stop-color:#7A6E6F"
         id="stop4" />
    </linearGradient>
    <linearGradient
       id="SVGID_1_-3-5"
       gradientUnits="userSpaceOnUse"
       x1="79.259193"
       y1="43.797916"
       x2="-0.8504647"
       y2="43.797916"
       gradientTransform="matrix(0,-0.28172833,0.26394833,0,2.6230153,149.97168)"
       xlink:href="#SVGID_1_">
      <stop
         offset="0"
         style="stop-color:#07141d;stop-opacity:1"/>
      <stop
         offset="1"
         style="stop-color:#7e99ad;stop-opacity:1"/>
    </linearGradient>
  </defs>
  <g
     inkscape:label="Layer 1"
     inkscape:groupmode="layer"
     transform="translate(-2.3094319,-127.54949)">
    <path
       style="fill:url(#SVGID_1_-3-5);fill-opacity:1;stroke-width:0.26458332"
       d="m 13.681487,127.62886 c -6.2367577,0 -11.2926807,5.05804 -11.2926807,11.29771 0,6.23967 5.055923,11.29771 11.2926807,11.29771 0.168011,0 0.335227,-0.006 0.501916,-0.013 0.04048,0.009 0.08255,0.013 0.125411,0.013 H 24.60772 c 0.207965,0 0.376505,-0.16854 0.376505,-0.37651 v -21.84214 c 0,-0.20797 -0.16854,-0.37651 -0.376505,-0.37651 H 14.308814 c -0.04286,0 -0.08493,0.004 -0.125411,0.013 -0.166689,-0.008 -0.333905,-0.0132 -0.501916,-0.0132 z"
       inkscape:connector-curvature="0"/>
    <path
       style="fill:#535d7e;fill-opacity:1;stroke-width:0.99999994"
       d="M 21.072266 6.3535156 C 20.344415 6.789978 19.630488 7.2468194 18.931641 7.7246094 L 18.931641 78.275391 C 19.630488 78.753181 20.344415 79.210022 21.072266 79.646484 L 21.072266 6.3535156 z "
       transform="matrix(0.26458333,0,0,0.26458333,2.3094319,127.54949)"/>
    <path
       style="fill:#535d7e;fill-opacity:1;stroke-width:0.99999994"
       d="M 41.003906 0.34960938 C 40.33023 0.38036513 39.661272 0.42858394 38.996094 0.49023438 L 38.996094 85.509766 C 39.661272 85.571416 40.33023 85.619635 41.003906 85.650391 L 41.003906 0.34960938 z "
       transform="matrix(0.26458333,0,0,0.26458333,2.3094319,127.54949)"/>
    <path
       style="fill:#535d7e;fill-opacity:1;stroke-width:0.99999994"
       d="M 58.992188 0.30078125 L 58.992188 85.699219 L 61.007812 85.699219 L 61.007812 0.30078125 L 58.992188 0.30078125 z "
       transform="matrix(0.26458333,0,0,0.26458333,2.3094319,127.54949)"/>
    <path
       style="fill:#535d7e;fill-opacity:1;stroke-width:0.99999994"
       d="M 78.998047 0.30078125 L 78.998047 85.699219 L 81.005859 85.699219 L 81.005859 0.30078125 L 78.998047 0.30078125 z "
       transform="matrix(0.26458333,0,0,0.26458333,2.3094319,127.54949)"/>
    <path
       style="fill:#535d7e;fill-opacity:1;stroke-width:0.99999994"
       d="M 21.6875 80 C 22.954396 80.731344 24.260754 81.39944 25.605469 82 L 85.699219 82 L 85.699219 80 L 21.6875 80 z "
       transform="matrix(0.26458333,0,0,0.26458333,2.3094319,127.54949)"/>
    <path
       style="fill:#535d7e;fill-opacity:1;stroke-width:0.99999994"
       d="M 3.8261719 60 C 4.1200349 60.676484 4.4324435 61.342257 4.7597656 62 L 85.699219 62 L 85.699219 60 L 3.8261719 60 z "
       transform="matrix(0.26458333,0,0,0.26458333,2.3094319,127.54949)"/>
    <path
       style="fill:#535d7e;fill-opacity:1;stroke-width:0.99999994"
       d="M 0.41601562 40 C 0.36998182 40.662728 0.34163182 41.329283 0.32617188 42 L 85.699219 42 L 85.699219 40 L 0.41601562 40 z "
       transform="matrix(0.26458333,0,0,0.26458333,2.3094319,127.54949)"/>
    <path
       style="fill:#535d7e;fill-opacity:1;stroke-width:0.99999994"
       d="M 7.0273438 20.001953 C 6.6079241 20.656879 6.2043116 21.323254 5.8203125 22.001953 L 85.699219 22.001953 L 85.699219 20.001953 L 7.0273438 20.001953 z "
       transform="matrix(0.26458333,0,0,0.26458333,2.3094319,127.54949)"/>
    <path
       style="fill:#f43202;fill-opacity:1;stroke-width:0.99999994"
       d="M 53.929688 11.224609 L 1.890625 31.460938 C 1.7257238 32.049817 1.5735927 32.643314 1.4335938 33.242188 L 54.068359 12.775391 L 85.699219 18.708984 L 85.699219 17.181641 L 53.929688 11.224609 z "
       transform="matrix(0.26458334,0,0,0.26458334,2.3094319,127.54949)"/>
    <path
       style="fill:#ed9236;fill-opacity:1;stroke-width:0.99999994"
       d="M 29.871094 35.349609 L 6.7539062 65.572266 C 6.9417972 65.873453 7.1330006 66.172649 7.328125 66.46875 L 30.128906 36.648438 L 64.617188 56.357422 L 74.767578 76.650391 L 85.699219 71.6875 L 85.699219 70.591797 L 75.232422 75.34375 L 65.378906 55.642578 L 29.871094 35.349609 z "
       transform="matrix(0.26458334,0,0,0.26458334,2.3094319,127.54949)"/>
    <g
       aria-label="18"
       transform="translate(0,6.5941019)">
      <path
         d="m 8.474775,139.58922 h 0.9095053 v -3.13917 l -0.9894315,0.19844 v -0.50712 l 0.9839193,-0.19844 h 0.5567274 v 3.64629 h 0.9095055 v 0.46853 H 8.474775 Z"
         style="fill:#deffff;fill-opacity:1"
         inkscape:connector-curvature="0"/>
      <path
         d="m 13.160105,138.1037 q -0.396875,0 -0.62563,0.21221 -0.225998,0.21222 -0.225998,0.58429 0,0.37207 0.225998,0.58429 0.228755,0.21222 0.62563,0.21222 0.396875,0 0.625629,-0.21222 0.228755,-0.21497 0.228755,-0.58429 0,-0.37207 -0.228755,-0.58429 -0.225998,-0.21221 -0.625629,-0.21221 z m -0.556728,-0.23703 q -0.35829,-0.0882 -0.559483,-0.33348 -0.198438,-0.24529 -0.198438,-0.59807 0,-0.49334 0.350022,-0.77997 0.352778,-0.28663 0.964627,-0.28663 0.614605,0 0.964627,0.28663 0.350021,0.28663 0.350021,0.77997 0,0.35278 -0.201193,0.59807 -0.198438,0.24529 -0.553972,0.33348 0.402387,0.0937 0.62563,0.36656 0.225998,0.27285 0.225998,0.66697 0,0.59807 -0.366558,0.91778 -0.363802,0.3197 -1.044553,0.3197 -0.680751,0 -1.047309,-0.3197 -0.363802,-0.31971 -0.363802,-0.91778 0,-0.39412 0.225998,-0.66697 0.225998,-0.27285 0.628385,-0.36656 z m -0.203949,-0.87918 q 0,0.3197 0.198437,0.49885 0.201194,0.17914 0.56224,0.17914 0.35829,0 0.559483,-0.17914 0.20395,-0.17915 0.20395,-0.49885 0,-0.31971 -0.20395,-0.49885 -0.201193,-0.17915 -0.559483,-0.17915 -0.361046,0 -0.56224,0.17915 -0.198437,0.17914 -0.198437,0.49885 z"
         style="fill:#deffff;fill-opacity:1"
         inkscape:connector-curvature="0"/>
    </g>
    <g
       aria-label="56">
      <path
         d="m 15.57994,132.87975 h 2.185569 v 0.46853 h -1.675695 v 1.00872 q 0.121268,-0.0413 0.242535,-0.0606 0.121267,-0.0221 0.242535,-0.0221 0.689019,0 1.091406,0.37758 0.402387,0.37759 0.402387,1.02251 0,0.66421 -0.413411,1.03353 -0.413412,0.36655 -1.165821,0.36655 -0.259071,0 -0.529166,-0.0441 -0.26734,-0.0441 -0.553972,-0.13229 v -0.55949 q 0.248047,0.13505 0.51263,0.2012 0.264584,0.0661 0.559484,0.0661 0.476801,0 0.755165,-0.2508 0.278364,-0.2508 0.278364,-0.68075 0,-0.42995 -0.278364,-0.68075 -0.278364,-0.25081 -0.755165,-0.25081 -0.223242,0 -0.446484,0.0496 -0.220487,0.0496 -0.451997,0.15434 z"
         style="fill:#deffff;fill-opacity:1"
         inkscape:connector-curvature="0"/>
      <path
         d="m 20.425122,134.71529 q -0.374826,0 -0.595312,0.25632 -0.21773,0.25631 -0.21773,0.7028 0,0.44373 0.21773,0.7028 0.220486,0.25631 0.595312,0.25631 0.374827,0 0.592557,-0.25631 0.220486,-0.25907 0.220486,-0.7028 0,-0.44649 -0.220486,-0.7028 -0.21773,-0.25632 -0.592557,-0.25632 z m 1.105187,-1.74459 v 0.50711 q -0.209462,-0.0992 -0.424436,-0.15158 -0.212218,-0.0524 -0.42168,-0.0524 -0.551215,0 -0.843359,0.37208 -0.289388,0.37207 -0.330729,1.12447 0.162608,-0.23977 0.407899,-0.36655 0.245291,-0.12954 0.540191,-0.12954 0.620117,0 0.978407,0.37758 0.361046,0.37483 0.361046,1.02251 0,0.63389 -0.374826,1.01699 -0.374827,0.38309 -0.9977,0.38309 -0.713824,0 -1.091406,-0.5457 -0.377582,-0.54846 -0.377582,-1.5875 0,-0.97565 0.46302,-1.55443 0.463021,-0.58153 1.242991,-0.58153 0.209462,0 0.421679,0.0413 0.214974,0.0413 0.446485,0.12403 z"
         style="fill:#deffff;fill-opacity:1"
         inkscape:connector-curvature="0"/>
    </g>
  </g>
</svg>
