<?xml version="1.0" encoding="utf-8" standalone="no"?>
<svg version="1.1" width="86" height="86" xmlns="http://www.w3.org/2000/svg">
  <defs>
    <linearGradient id="gradient" x1="0.3" y1="0.3" x2="0.3" y2="85.7" gradientUnits="userSpaceOnUse">
      <stop offset="0" style="stop-color:#07141d;stop-opacity:1"/>
      <stop offset="1" style="stop-color:#7e99ad;stop-opacity:1"/>
    </linearGradient>
  </defs>
  <rect style="fill:none;opacity:0" width="86" height="86"/>
  <path style="fill:url(#gradient)" d="M 43,0.3 C 19.42,0.3 0.3,19.41 0.3,43 0.3,66.59 19.46,85.7 43,85.7 h 41.27 c 0.8,0 1.43,-0.63 1.43,-1.43 V 1.73 C 85.7,0.93 85.07,0.3 84.27,0.3 z"/>
  <path style="fill:#535d7e" d="M 59,0.3 V 20 H 41 V 0.35 C 40.33,0.38 39.66,0.43 39,0.49 V 20 H 21 V 6.35 c -0.73,0.44 -1.3,0.9 -2,1.37 V 20 H 7.03 C 6.61,20.66 6.2,21.32 5.82,22 H 19 V 40 H 0.42 C 0.37,40.66 0.34,41.33 0.33,42 H 19 V 60 H 3.83 c 0.29,0.68 0.6,1.34 0.93,2 H 19 v 16.28 c 0.7,0.47 1.27,0.93 2,1.37 V 62 H 39 V 80 H 21.69 c 1.26,0.73 2.57,1.4 3.92,2 H 39 v 3.51 c 0.66,0.06 1.33,0.11 2,0.14 V 82 h 18 v 3.7 h 2 V 82 h 18 v 3.7 h 2 V 82 h 4.7 V 80 H 81 V 62 h 4.7 V 60 H 81 V 42 h 4.7 V 40 H 81 V 22 h 4.7 V 20 H 81 V 0.3 H 79 V 20 H 61 V 0.3 Z M 21,22 H 39 V 40 H 21 Z m 20,0 H 59 V 40 H 41 Z m 20,0 H 79 V 40 H 61 Z M 21,42 H 39 V 60 H 21 Z m 20,0 H 59 V 60 H 41 Z m 20,0 H 79 V 60 H 61 Z M 41,62 H 59 V 80 H 41 Z m 20,0 H 79 V 80 H 61 z"/>
  <path style="fill:#f43202" d="M 53.93,11.22 1.89,31.46 C 1.73,32.05 1.57,32.64 1.43,33.24 L 54.07,12.78 85.7,18.71 v -1.53 z"/>
  <path style="fill:#ed9236" d="M 29.87,35.35 6.75,65.57 c 0.19,0.3 0.38,0.6 0.57,0.9 L 30.13,36.65 64.62,56.36 74.77,76.65 85.7,71.69 v -1.1 L 75.23,75.34 65.38,55.64 z"/>
  <g style="fill:#deffff">
    <path d="m 23.3,70.43 h 3.44 V 58.56 l -3.74,0.75 v -1.92 l 3.72,-0.75 h 2.1 V 70.43 h 3.44 v 1.77 h -8.96 z"/>
    <path d="m 41.01,64.81 c -1.97,0 -3.21,1.09 -3.21,3.01 0,1.92 1.24,3.01 3.21,3.01 2.97,0 3.22,-2.26 3.22,-3.01 0,-1.84 -1.17,-3.01 -3.22,-3.01 z m -2.1,-0.9 c -1.79,-0.44 -2.86,-1.72 -2.86,-3.52 0,-2.41 1.75,-4.03 4.97,-4.03 3.15,0 4.97,1.56 4.97,4.03 0,1.76 -1.06,3.08 -2.85,3.52 2.06,0.47 3.21,1.96 3.21,3.91 0,2.99 -1.89,4.68 -5.34,4.68 -3.32,0 -5.33,-1.56 -5.33,-4.68 0,-2 1.2,-3.43 3.22,-3.91 z m -0.77,-3.32 c 0,1.6 1.02,2.57 2.88,2.57 1.82,0 2.88,-0.97 2.88,-2.57 0,-1.6 -1.06,-2.57 -2.88,-2.57 -1.78,0 -2.88,0.9 -2.88,2.57 z"/>
    <path d="m 50.16,20.15 h 8.26 v 1.77 h -6.33 v 3.81 c 0.83,-0.28 1.55,-0.31 1.83,-0.31 3.5,0 5.65,2.05 5.65,5.29 0,3.25 -2.04,5.29 -5.97,5.29 -1.32,0 -2.66,-0.23 -4.09,-0.67 v -2.11 c 1.32,0.72 2.66,1.01 4.05,1.01 2.42,0 3.91,-1.35 3.91,-3.52 0,-2.17 -1.49,-3.52 -3.91,-3.52 -1.44,0 -2.59,0.41 -3.4,0.77 z"/>
    <path d="m 68.47,27.08 c -1.82,0 -3.07,1.27 -3.07,3.63 0,2.29 1.2,3.62 3.07,3.62 1.92,0 3.07,-1.41 3.07,-3.62 0,-2.28 -1.21,-3.63 -3.07,-3.63 z m 4.18,-6.59 v 1.92 c -1.31,-0.62 -2.43,-0.77 -3.2,-0.77 -2.94,0 -4.24,2.1 -4.44,5.66 1.12,-1.66 2.79,-1.87 3.58,-1.87 3.13,0 5.06,2.03 5.06,5.29 0,3.2 -2.03,5.29 -5.19,5.29 -5.44,0 -5.55,-6.35 -5.55,-8.06 0,-4.99 2.55,-8.07 6.45,-8.07 1.05,0 2.13,0.21 3.28,0.62 z"/>
  </g>
</svg>
