<?xml version="1.0" encoding="utf-8" standalone="no"?>
<svg version="1.1" width="32" height="32" xmlns="http://www.w3.org/2000/svg">
  <rect style="fill:none;opacity:0" width="32" height="32"/>
  <g style="fill:#ffffff">
    <path style="opacity:0.4" d="M -0,-0 V 32 H 32 V 30 H 24 V 21 H 32 V 19 H 24 V 10 H 32 v -2 H 24 V -0 h -2 V 8 H 13 V -0 H 11 V 8 H 2 V -0 Z M 2,10 H 11 V 19 H 2 Z m 11,0 h 9 V 19 H 13 Z m -11,11 H 11 V 30 H 2 Z m 11,0 h 9 V 30 H 13 z"/>
    <path d="m 28.2,2.37 c -0.6,0 -1.15,0.29 -1.44,0.78 L 16,20.63 11,15.14 C 10.3,14.38 9.29,14.05 8.69,14.89 L 2,24.3 v 5.48 l 7.92,-11.12 5.1,5.6 c 0.73,0.8 2.07,0.68 2.64,-0.23 L 29.57,4.69 C 30.22,3.68 29.45,2.39 28.2,2.38 z"/>
  </g>
</svg>
