<?xml version="1.0" encoding="UTF-8" standalone="no"?>
<!DOCTYPE svg PUBLIC "-//W3C//DTD SVG 1.1//EN" "http://www.w3.org/Graphics/SVG/1.1/DTD/svg11.dtd">
<svg width="100%" height="100%" viewBox="0 0 86 86" version="1.1" xmlns="http://www.w3.org/2000/svg" xmlns:xlink="http://www.w3.org/1999/xlink" xml:space="preserve" xmlns:serif="http://www.serif.com/" style="fill-rule:evenodd;clip-rule:evenodd;stroke-linejoin:round;stroke-miterlimit:2;">
    <g id="Layer_1">
        <path d="M43,0.3C19.418,0.3 0.3,19.418 0.3,43L0.3,84.277C0.3,85.063 0.937,85.7 1.723,85.7L43,85.7C66.585,85.7 85.7,66.582 85.7,43C85.7,19.418 66.585,0.3 43,0.3Z" style="fill:url(#_Linear1);fill-rule:nonzero;"/>
        <g transform="matrix(1.1508,0,0,1.1508,2.29755,16.5317)">
            <path d="M63,18L57,18C56.447,18 56,18.447 56,19L56,21.667L46,35.001L46,35C46,34.447 45.553,34 45,34L39,34C38.447,34 38,34.447 38,35L38,36.523L30,33.323L30,31C30,30.447 29.553,30 29,30L23,30C22.447,30 22,30.447 22,31L22,31.89L17.751,28.413L24.088,20.492C24.659,20.805 25.304,21 26,21C27.318,21 28.479,20.352 29.208,19.366L38.045,25.552C38.028,25.701 38,25.847 38,26C38,28.206 39.794,30 42,30C44.206,30 46,28.206 46,26C46,25.494 45.896,25.015 45.724,24.569L45.786,24.618L56.096,11.496C56.665,11.807 57.307,12 58,12C60.206,12 62,10.206 62,8C62,5.794 60.206,4 58,4C55.794,4 54,5.794 54,8C54,8.784 54.235,9.511 54.626,10.129L44.555,22.948C43.86,22.365 42.976,22 42,22C40.682,22 39.521,22.648 38.792,23.634L29.955,17.448C29.972,17.299 30,17.153 30,17C30,14.794 28.206,13 26,13C23.794,13 22,14.794 22,17C22,17.781 22.234,18.505 22.622,19.121L16.202,27.146L13,24.526L13,19C13,18.447 12.553,18 12,18L6,18C5.447,18 5,18.447 5,19L5,25C5,25.553 5.447,26 6,26L11.643,26L14.953,28.708L11.325,33.243C10.908,33.095 10.467,33 10,33C7.794,33 6,34.794 6,37C6,39.206 7.794,41 10,41C12.206,41 14,39.206 14,37C14,35.987 13.61,35.072 12.988,34.367L16.502,29.975L22,34.474L22,37C22,37.553 22.447,38 23,38L29,38C29.553,38 30,37.553 30,37L30,35.477L38,38.677L38,41C38,41.553 38.447,42 39,42L45,42C45.553,42 46,41.553 46,41L46,38.333L56,25C56,25.553 56.447,26 57,26L63,26C63.553,26 64,25.553 64,25L64,19C64,18.447 63.553,18 63,18ZM58,6C59.102,6 60,6.897 60,8C60,9.102 59.102,10 58,10C56.897,10 56,9.102 56,8C56,6.897 56.897,6 58,6ZM42,24C43.102,24 44,24.897 44,26C44,27.102 43.102,28 42,28C40.897,28 40,27.102 40,26C40,24.897 40.897,24 42,24ZM26,15C27.102,15 28,15.897 28,17C28,18.102 27.102,19 26,19C24.897,19 24,18.102 24,17C24,15.897 24.897,15 26,15ZM11,24L7,24L7,20L11,20L11,24ZM10,39C8.898,39 8,38.102 8,37C8,35.897 8.898,35 10,35C11.102,35 12,35.897 12,37C12,38.102 11.102,39 10,39ZM28,36L24,36L24,32L28,32L28,36ZM44,40L40,40L40,36L44,36L44,40ZM62,24L58,24L58,20L62,20L62,24Z" style="fill:rgb(242,235,179);fill-rule:nonzero;"/>
        </g>
        <g transform="matrix(1.1508,0,0,1.1508,1.66861,25.6123)">
            <g transform="matrix(1.22568,0,0,1.13898,-9.56617,-12.4268)">
                <path d="M44,9L44,7L42,7L42,9L40,9L40,11L42,11L42,13L44,13L44,11L46,11L46,9L44,9Z" style="fill:rgb(242,235,179);fill-rule:nonzero;"/>
            </g>
            <g transform="matrix(1.22568,0,0,1.13898,-26.2558,29.5842)">
                <path d="M44,9L44,7L42,7L42,9L40,9L40,11L42,11L42,13L44,13L44,11L46,11L46,9L44,9Z" style="fill:rgb(242,235,179);fill-rule:nonzero;"/>
            </g>
        </g>
    </g>
    <defs>
        <linearGradient id="_Linear1" x1="0" y1="0" x2="1" y2="0" gradientUnits="userSpaceOnUse" gradientTransform="matrix(72.4768,-72.4767,72.4767,72.4768,0.7171,85.2833)"><stop offset="0" style="stop-color:rgb(246,76,14);stop-opacity:1"/><stop offset="1" style="stop-color:rgb(230,192,0);stop-opacity:1"/></linearGradient>
    </defs>
</svg>
